<svg width="504" height="500" xmlns="http://www.w3.org/2000/svg" xmlns:xlink="http://www.w3.org/1999/xlink" xml:space="preserve" overflow="hidden"><g transform="translate(-2177 -902)"><g><path d="M2183.5 1153.5C2183.5 1017.64 2293.64 907.5 2429.5 907.5 2565.36 907.5 2675.5 1017.64 2675.5 1153.5 2675.5 1289.36 2565.36 1399.5 2429.5 1399.5 2293.64 1399.5 2183.5 1289.36 2183.5 1153.5Z" stroke="#172C51" stroke-width="4.58333" stroke-linecap="butt" stroke-linejoin="miter" stroke-miterlimit="8" stroke-opacity="1" fill="#CDF5EA" fill-rule="evenodd" fill-opacity="1"/><g><g><g><path d="M2360.25 1132.38 2497.75 1132.38 2497.75 1139.25 2360.25 1139.25Z" fill="#FFFFFF" fill-rule="nonzero" fill-opacity="1"/><path d="M2360.25 1104.88 2425.56 1104.88 2425.56 1111.75 2360.25 1111.75Z" fill="#FFFFFF" fill-rule="nonzero" fill-opacity="1"/><path d="M2360.25 1159.88 2497.75 1159.88 2497.75 1166.75 2360.25 1166.75Z" fill="#FFFFFF" fill-rule="nonzero" fill-opacity="1"/><path d="M2360.25 1187.38 2497.75 1187.38 2497.75 1194.25 2360.25 1194.25Z" fill="#FFFFFF" fill-rule="nonzero" fill-opacity="1"/><path d="M2360.25 1214.88 2497.75 1214.88 2497.75 1221.75 2360.25 1221.75Z" fill="#FFFFFF" fill-rule="nonzero" fill-opacity="1"/><path d="M2360.25 1242.38 2497.75 1242.38 2497.75 1249.25 2360.25 1249.25Z" fill="#FFFFFF" fill-rule="nonzero" fill-opacity="1"/><path d="M2325.88 1015.5 2325.88 1290.5 2532.12 1290.5 2532.12 1089.7 2457.92 1015.5ZM2460 1027.29 2520.33 1087.63C2520.34 1087.64 2520.34 1087.66 2520.33 1087.68 2520.32 1087.68 2520.32 1087.69 2520.31 1087.69L2459.94 1087.69 2459.94 1027.32C2459.94 1027.3 2459.95 1027.28 2459.97 1027.28 2459.98 1027.28 2459.99 1027.29 2460 1027.29ZM2332.75 1283.62 2332.75 1022.37 2453.06 1022.37 2453.06 1094.56 2525.25 1094.56 2525.25 1283.62Z" fill="#FFFFFF" fill-rule="nonzero" fill-opacity="1"/></g></g></g></g></g></svg>