<svg width="1105" height="1100" xmlns="http://www.w3.org/2000/svg" xmlns:xlink="http://www.w3.org/1999/xlink" xml:space="preserve" overflow="hidden"><g transform="translate(-2401 -641)"><g><path d="M2408 1191.5C2408 890.229 2652.23 646 2953.5 646 3254.77 646 3499 890.229 3499 1191.5 3499 1492.77 3254.77 1737 2953.5 1737 2652.23 1737 2408 1492.77 2408 1191.5Z" stroke="#173D6E" stroke-width="8.02083" stroke-linecap="butt" stroke-linejoin="miter" stroke-miterlimit="8" stroke-opacity="1" fill="#85E4CC" fill-rule="evenodd" fill-opacity="1"/><g><g><g><path d="M206.208 309.313 500.792 309.313 500.792 324.042 206.208 324.042Z" fill="#173D6E" fill-rule="nonzero" fill-opacity="1" transform="matrix(1.00141 0 0 1 2599 838)"/><path d="M206.208 250.396 346.135 250.396 346.135 265.125 206.208 265.125Z" fill="#173D6E" fill-rule="nonzero" fill-opacity="1" transform="matrix(1.00141 0 0 1 2599 838)"/><path d="M206.208 368.229 500.792 368.229 500.792 382.958 206.208 382.958Z" fill="#173D6E" fill-rule="nonzero" fill-opacity="1" transform="matrix(1.00141 0 0 1 2599 838)"/><path d="M206.208 427.146 500.792 427.146 500.792 441.875 206.208 441.875Z" fill="#173D6E" fill-rule="nonzero" fill-opacity="1" transform="matrix(1.00141 0 0 1 2599 838)"/><path d="M206.208 486.063 500.792 486.063 500.792 500.792 206.208 500.792Z" fill="#173D6E" fill-rule="nonzero" fill-opacity="1" transform="matrix(1.00141 0 0 1 2599 838)"/><path d="M206.208 544.979 500.792 544.979 500.792 559.708 206.208 559.708Z" fill="#173D6E" fill-rule="nonzero" fill-opacity="1" transform="matrix(1.00141 0 0 1 2599 838)"/><path d="M132.563 58.9167 132.563 648.083 574.438 648.083 574.438 217.889 415.466 58.9167ZM419.906 84.1846 549.17 213.448C549.198 213.476 549.198 213.524 549.169 213.552 549.155 213.565 549.137 213.573 549.118 213.573L419.781 213.573 419.781 84.2361C419.782 84.1956 419.815 84.1632 419.856 84.1632 419.875 84.1639 419.893 84.1713 419.906 84.1846ZM147.292 633.354 147.292 73.6458 405.052 73.6458 405.052 228.302 559.708 228.302 559.708 633.354Z" fill="#173D6E" fill-rule="nonzero" fill-opacity="1" transform="matrix(1.00141 0 0 1 2599 838)"/></g></g></g></g></g></svg>